<svg width="24" height="24" viewBox="0 0 24 24" fill="none" xmlns="http://www.w3.org/2000/svg">
    <path d="M17 2.00024H7C4.23858 2.00024 2 4.23882 2 7.00024V17.0002C2 19.7617 4.23858 22.0002 7 22.0002H17C19.7614 22.0002 22 19.7617 22 17.0002V7.00024C22 4.23882 19.7614 2.00024 17 2.00024Z" stroke="black" stroke-width="2" stroke-linecap="round" stroke-linejoin="round"/>
    <path d="M15.9997 11.3702C16.1231 12.2025 15.981 13.0525 15.5935 13.7993C15.206 14.5461 14.5929 15.1517 13.8413 15.5299C13.0898 15.9082 12.2382 16.0398 11.4075 15.9062C10.5768 15.7725 9.80947 15.3803 9.21455 14.7854C8.61962 14.1905 8.22744 13.4231 8.09377 12.5925C7.96011 11.7618 8.09177 10.9101 8.47003 10.1586C8.84829 9.40709 9.45389 8.79398 10.2007 8.40648C10.9475 8.01898 11.7975 7.87683 12.6297 8.00024C13.4786 8.12613 14.2646 8.5217 14.8714 9.12855C15.4782 9.73539 15.8738 10.5213 15.9997 11.3702Z" stroke="black" stroke-width="2" stroke-linecap="round" stroke-linejoin="round"/>
    <path d="M17.5 6.50024H17.51" stroke="black" stroke-width="2" stroke-linecap="round" stroke-linejoin="round"/>
</svg>
